<svg width="400" height="400" viewBox="0 0 400 400" fill="none" xmlns="http://www.w3.org/2000/svg">
<path fill-rule="evenodd" clip-rule="evenodd" d="M0 200V400H200H400V200V0H200H0V200Z" fill="#DEDDD8"/>
<path fill-rule="evenodd" clip-rule="evenodd" d="M190.5 1.83786C202.211 8.97986 206.638 24.4909 200.313 36.2189C196.693 42.9289 42.775 173.928 32.5 179.043C20.482 185.025 9.715 185.324 3.479 179.848L0 176.794V232.62C0 282.317 0.163 288.213 1.487 286.323C3.054 284.086 12.021 276.118 44 248.548C75.252 221.605 91.31 217.88 112.718 232.61C118.033 236.267 211.961 355.327 217.887 365.919C223.02 375.093 220.139 389.302 211.678 396.545L207.64 400.001L268.57 399.99L329.5 399.979L326.357 397.501C324.628 396.138 316.958 387.03 309.313 377.262C292.795 356.155 281.638 341.956 265.104 321.001C249.537 301.271 218.704 262.006 199.536 237.501C191.361 227.051 181.351 214.345 177.291 209.266C164.846 193.697 161.025 181.823 163.941 167.782C166.636 154.807 169.94 150.619 197 125.874C202.775 120.593 235.089 90.8299 268.809 59.7329C302.529 28.6359 331.554 2.48486 333.309 1.61986C336.241 0.173863 330.462 0.0448635 262 0.0278635C189.391 0.00886347 187.576 0.0548635 190.5 1.83786Z" fill="#121212"/>
</svg>